<?xml version="1.0" standalone="no"?>
<!DOCTYPE svg PUBLIC "-//W3C//DTD SVG 20010904//EN"
 "http://www.w3.org/TR/2001/REC-SVG-20010904/DTD/svg10.dtd">
<svg version="1.0" xmlns="http://www.w3.org/2000/svg"
 width="62.000000pt" height="49.000000pt" viewBox="0 0 62.000000 49.000000"
 preserveAspectRatio="xMidYMid meet">
<metadata>
Created by potrace 1.10, written by Peter Selinger 2001-2011
</metadata>
<g transform="translate(0.000000,49.000000) scale(0.100000,-0.100000)"
fill="#98fb98" stroke="none">
<path d="M164 483 c-28 -5 -131 -98 -139 -124 -8 -24 12 -69 31 -69 6 0 14
-10 17 -22 3 -13 9 -33 12 -45 5 -15 3 -23 -4 -23 -6 0 -11 8 -12 18 0 10 -3
12 -6 5 -2 -7 -11 -13 -18 -13 -42 0 -14 -58 54 -113 89 -72 207 -95 329 -63
63 17 144 67 168 103 15 24 15 27 0 38 -19 14 -21 32 -4 37 6 2 11 20 11 39 0
19 4 37 10 40 21 14 -68 124 -140 173 -29 20 -49 26 -88 25 -47 -1 -48 -2 -15
-8 43 -9 95 -35 135 -69 36 -30 96 -112 90 -122 -3 -5 -40 3 -82 17 -87 29
-202 35 -375 20 -115 -10 -122 -3 -62 62 40 45 100 77 165 90 l44 9 -50 0
c-27 -1 -59 -3 -71 -5z m217 -167 c24 -2 58 -11 74 -20 l30 -16 -47 0 c-26 0
-50 5 -53 11 -4 6 -14 8 -22 5 -8 -3 -27 4 -41 15 -23 18 -23 20 -6 15 11 -3
41 -8 65 -10z m-193 -71 c-1 -50 -2 -50 -5 -7 -5 54 -23 55 -23 1 0 -23 -4
-38 -10 -34 -5 3 -7 12 -3 20 3 9 -1 15 -11 15 -9 0 -16 -8 -16 -20 0 -28 -20
-25 -21 3 -1 12 -1 25 0 30 0 4 -4 7 -9 7 -5 0 -10 7 -10 15 0 21 18 19 32 -5
15 -24 43 -27 34 -4 -8 21 -2 30 23 30 19 0 21 -6 19 -51z m70 0 c-1 -50 -2
-50 -5 -7 -2 23 -9 42 -15 42 -7 0 -8 -13 -5 -35 3 -19 2 -37 -3 -40 -10 -6
-17 29 -12 65 3 18 10 26 23 26 16 0 19 -7 17 -51z m72 45 c0 -5 -9 -10 -20
-10 -16 0 -20 -7 -20 -30 0 -20 5 -30 15 -30 8 0 15 -4 15 -10 0 -5 -9 -10
-20 -10 -17 0 -20 7 -20 50 0 47 2 50 25 50 14 0 25 -4 25 -10z m54 -19 c3 -5
-3 -11 -14 -14 -23 -6 -27 -27 -5 -27 8 0 15 -5 15 -11 0 -18 -35 -5 -38 14
-6 30 28 60 42 38z m122 -36 c1 -14 -1 -25 -6 -25 -9 0 -20 47 -12 55 8 8 15
-3 18 -30z m-80 13 c4 -6 2 -14 -4 -16 -7 -2 -10 -8 -6 -13 3 -5 1 -9 -5 -9
-14 0 -24 19 -17 35 7 18 22 19 32 3z m52 -16 c2 -12 -1 -22 -7 -22 -6 0 -11
10 -12 23 -1 21 -1 21 -9 -3 l-8 -25 -1 28 c-1 22 3 28 17 25 9 -2 18 -13 20
-26z m72 3 c0 -27 -9 -32 -27 -14 -14 14 -6 39 13 39 8 0 14 -10 14 -25z m36
9 c-3 -9 -6 -20 -6 -25 0 -5 -4 -9 -10 -9 -5 0 -10 11 -10 25 0 16 6 25 16 25
11 0 14 -5 10 -16z m-296 -87 c58 -1 149 2 203 6 113 10 124 1 60 -52 -95 -79
-263 -100 -375 -49 -57 26 -153 111 -144 127 3 4 38 -1 78 -11 47 -13 111 -20
178 -21z m190 33 c10 -1 7 -4 -6 -10 -19 -7 -97 -11 -227 -11 -21 0 -46 5 -55
11 -13 8 1 10 55 6 40 -3 74 -2 77 2 4 6 84 7 156 2z"/>
</g>
</svg>
